<svg width="124" height="124" viewBox="0 0 124 124" fill="none" xmlns="http://www.w3.org/2000/svg">
<rect width="124" height="124" rx="25" fill="#75A6D7"/>
<path d="M37.1482 82.72C34.0762 82.72 31.3642 81.976 29.0122 80.488C26.6602 79 24.8122 76.792 23.4682 73.864C22.1242 70.888 21.4522 67.216 21.4522 62.848C21.4522 56.32 22.8682 51.328 25.7002 47.872C28.5802 44.416 32.4922 42.688 37.4362 42.688C39.2602 42.688 40.9162 42.952 42.4042 43.48C43.8922 43.96 45.2122 44.656 46.3642 45.568C47.5642 46.432 48.5722 47.464 49.3882 48.664H49.6762L50.6122 43.408H55.6522V73.504C55.6522 74.992 55.9402 76.048 56.5162 76.672C57.0922 77.248 57.7882 77.536 58.6042 77.536C58.9882 77.536 59.3962 77.488 59.8282 77.392C60.2602 77.296 60.5722 77.224 60.7642 77.176V81.784C60.5242 81.928 60.1882 82.072 59.7562 82.216C59.3242 82.36 58.8442 82.48 58.3162 82.576C57.7882 82.672 57.2602 82.72 56.7322 82.72C54.9562 82.72 53.4682 82.288 52.2682 81.424C51.1162 80.56 50.2762 79.024 49.7482 76.816H49.2442C48.4762 77.968 47.5162 79 46.3642 79.912C45.2122 80.776 43.8682 81.472 42.3322 82C40.7962 82.48 39.0682 82.72 37.1482 82.72ZM38.4442 77.464C41.0842 77.464 43.1962 76.96 44.7802 75.952C46.4122 74.944 47.5882 73.384 48.3082 71.272C49.0282 69.16 49.3882 66.472 49.3882 63.208V62.776C49.3882 57.976 48.5722 54.304 46.9402 51.76C45.3562 49.216 42.5002 47.944 38.3722 47.944C34.8682 47.944 32.2522 49.24 30.5242 51.832C28.8442 54.376 28.0042 58.072 28.0042 62.92C28.0042 67.72 28.8922 71.344 30.6682 73.792C32.4442 76.24 35.0362 77.464 38.4442 77.464ZM68.4716 99.28V43.912C68.4716 39.784 69.1916 36.496 70.6316 34.048C72.1196 31.552 74.1116 29.752 76.6076 28.648C79.1036 27.496 81.8876 26.92 84.9596 26.92C88.2236 26.92 90.9836 27.448 93.2396 28.504C95.5436 29.56 97.2716 31.12 98.4236 33.184C99.6236 35.2 100.224 37.696 100.224 40.672C100.224 42.976 99.7436 44.968 98.7836 46.648C97.8716 48.28 96.6476 49.624 95.1116 50.68C93.5756 51.688 91.8716 52.384 89.9996 52.768V53.056C92.4476 53.392 94.6076 54.136 96.4796 55.288C98.3516 56.44 99.8156 58.024 100.872 60.04C101.976 62.008 102.528 64.456 102.528 67.384C102.528 70.648 101.784 73.432 100.296 75.736C98.8556 78.04 96.8636 79.792 94.3196 80.992C91.8236 82.144 88.9916 82.72 85.8236 82.72C84.0956 82.72 82.5836 82.624 81.2876 82.432C80.0396 82.24 78.9116 81.952 77.9036 81.568C76.8956 81.184 75.8636 80.752 74.8076 80.272V99.28H68.4716ZM85.2476 77.536C88.6076 77.536 91.2716 76.624 93.2396 74.8C95.2076 72.928 96.1916 70.312 96.1916 66.952C96.1916 64.408 95.6876 62.32 94.6796 60.688C93.7196 59.008 92.4236 57.76 90.7916 56.944C89.2076 56.08 87.5036 55.648 85.6796 55.648H79.7036V50.752H84.9596C86.7836 50.752 88.3436 50.344 89.6396 49.528C90.9836 48.712 91.9916 47.56 92.6636 46.072C93.3836 44.584 93.7436 42.88 93.7436 40.96C93.7436 37.984 92.8556 35.776 91.0796 34.336C89.3516 32.896 87.2636 32.176 84.8156 32.176C83.1356 32.176 81.5276 32.512 79.9916 33.184C78.4556 33.808 77.2076 34.984 76.2476 36.712C75.2876 38.44 74.8076 40.936 74.8076 44.2V74.584C76.4876 75.448 78.0956 76.168 79.6316 76.744C81.1676 77.272 83.0396 77.536 85.2476 77.536Z" fill="white"/>
</svg>
