<svg width="132" height="132" viewBox="0 0 132 132" fill="none" xmlns="http://www.w3.org/2000/svg">
<g filter="url(#filter0_dd_3_25)">
<rect width="124" height="124" rx="25" fill="#75A6D7"/>
<path d="M56.1667 64.9166C57.4193 66.5912 59.0173 67.9767 60.8525 68.9794C62.6876 69.982 64.7169 70.5782 66.8028 70.7276C68.8886 70.877 70.9822 70.576 72.9415 69.8452C74.9008 69.1143 76.6799 67.9706 78.1584 66.4916L86.9084 57.7416C89.5648 54.9912 91.0348 51.3074 91.0015 47.4837C90.9683 43.66 89.4346 40.0023 86.7307 37.2984C84.0269 34.5946 80.3692 33.0609 76.5455 33.0276C72.7218 32.9944 69.038 34.4643 66.2875 37.1208L61.2709 42.1083M67.8334 59.0833C66.5808 57.4088 64.9827 56.0232 63.1476 55.0206C61.3124 54.0179 59.2831 53.4217 57.1973 53.2723C55.1115 53.1229 53.0179 53.4239 51.0586 54.1548C49.0993 54.8856 47.3201 56.0293 45.8417 57.5083L37.0917 66.2583C34.4352 69.0087 32.9653 72.6925 32.9985 76.5162C33.0318 80.3399 34.5655 83.9976 37.2693 86.7015C39.9732 89.4054 43.6309 90.9391 47.4546 90.9723C51.2783 91.0055 54.9621 89.5356 57.7125 86.8791L62.7 81.8916" stroke="white" stroke-width="5.83333" stroke-linecap="round" stroke-linejoin="round"/>
</g>
<defs>
<filter id="filter0_dd_3_25" x="0" y="0" width="132" height="132" filterUnits="userSpaceOnUse" color-interpolation-filters="sRGB">
<feFlood flood-opacity="0" result="BackgroundImageFix"/>
<feColorMatrix in="SourceAlpha" type="matrix" values="0 0 0 0 0 0 0 0 0 0 0 0 0 0 0 0 0 0 127 0" result="hardAlpha"/>
<feOffset dx="8" dy="8"/>
<feComposite in2="hardAlpha" operator="out"/>
<feColorMatrix type="matrix" values="0 0 0 0 0 0 0 0 0 0 0 0 0 0 0 0 0 0 0.1 0"/>
<feBlend mode="normal" in2="BackgroundImageFix" result="effect1_dropShadow_3_25"/>
<feColorMatrix in="SourceAlpha" type="matrix" values="0 0 0 0 0 0 0 0 0 0 0 0 0 0 0 0 0 0 127 0" result="hardAlpha"/>
<feOffset dx="4" dy="4"/>
<feComposite in2="hardAlpha" operator="out"/>
<feColorMatrix type="matrix" values="0 0 0 0 0 0 0 0 0 0 0 0 0 0 0 0 0 0 0.25 0"/>
<feBlend mode="normal" in2="effect1_dropShadow_3_25" result="effect2_dropShadow_3_25"/>
<feBlend mode="normal" in="SourceGraphic" in2="effect2_dropShadow_3_25" result="shape"/>
</filter>
</defs>
</svg>
